PathFileType	4	(X/Y/Z)	Walk6.trc
DataRate	CameraRate	NumFrames	NumMarkers	Units	OrigDataRate	OrigDataStartFrame	OrigNumFrames
200.000000	200.000000	8	59	mm	200.000000	476	554
Frame#	Times		C7		CLAV		STRN		RBack		LASI		RASI		RACR1		RUA1		RElbow		RFA1		RWRR		RWRU		RCAR		LACR1		LFA1		LWRU		LCAR		RTH1		RTH3		RTH2		RTH4		RLFC		LTH1		LTH3		LTH2		LTH4		LLFC		LTB1		LTB3		LTB2		LTB4		LMMAL		LMT1		LToe		LFHD		RFHD		T10		LMT5		LPSI		RPSI		LLMAL		RBHD		RTB1		LUA1		LBHD		RTB2		RTB3		RToe		RTB4		LCAL		RElbowM		RCAL		RMT1		LElbow		LElbowM		LWRR		RLMAL		RMT5		RMMAL
			X1	Y1	Z1	X2	Y2	Z2	X3	Y3	Z3	X4	Y4	Z4	X5	Y5	Z5	X6	Y6	Z6	X7	Y7	Z7	X8	Y8	Z8	X9	Y9	Z9	X10	Y10	Z10	X11	Y11	Z11	X12	Y12	Z12	X13	Y13	Z13	X14	Y14	Z14	X15	Y15	Z15	X16	Y16	Z16	X17	Y17	Z17	X18	Y18	Z18	X19	Y19	Z19	X20	Y20	Z20	X21	Y21	Z21	X22	Y22	Z22	X23	Y23	Z23	X24	Y24	Z24	X25	Y25	Z25	X26	Y26	Z26	X27	Y27	Z27	X28	Y28	Z28	X29	Y29	Z29	X30	Y30	Z30	X31	Y31	Z31	X32	Y32	Z32	X33	Y33	Z33	X34	Y34	Z34	X35	Y35	Z35	X36	Y36	Z36	X37	Y37	Z37	X38	Y38	Z38	X39	Y39	Z39	X40	Y40	Z40	X41	Y41	Z41	X42	Y42	Z42	X43	Y43	Z43	X44	Y44	Z44	X45	Y45	Z45	X46	Y46	Z46	X47	Y47	Z47	X48	Y48	Z48	X49	Y49	Z49	X50	Y50	Z50	X51	Y51	Z51	X52	Y52	Z52	X53	Y53	Z53	X54	Y54	Z54	X55	Y55	Z55	X56	Y56	Z56	X57	Y57	Z57	X58	Y58	Z58	X59	Y59	Z59

476	2.38	566.41	1407.7	-49.109	694.77	1334.4	-55.762	777.5	1111	-44.65	529.82	1305.4	54.856	729.54	930.63	-159.33	723.4	930.17	97.382	650.1	1349.1	117.87	649.64	1140.9	188.78	639.1	1034	218.85	733.56	909.89	210.58	779.24	818.96	164.68	736.97	797.14	221.38	793.36	774.14	212.94	626.94	1339.5	-223.43	565.95	891.7	-279.44	508.31	782.65	-289.69	546.11	730.02	-282.73	625.26	725.29	141.71	616.84	538.66	110.82	683.67	637.94	90.612	620.47	631.57	124.45	591.56	442.16	98.509	659.61	737.47	-205.34	720.03	564.25	-169.41	757.15	672.78	-159.5	689.94	646.91	-187.83	743.21	458.14	-157.75	781.89	362.21	-78.863	773.02	174.93	-77.369	753.08	269.15	-148.58	779.22	266.78	-82.023	751.72	73.954	-41.776	884.26	37.567	-83.743	927.59	29.977	-111.03	720.73	1580.9	-88.552	729.26	1584	-15.922	537.91	1124	-33.853	842.41	21.047	-160.97	509.36	965.3	-81.786	508.28	965.54	34.071	734.31	60.657	-121.5	562.22	1533.6	24.689	534.49	327.33	37.781	579.47	1134.1	-259.94	552.97	1539.2	-101.83	454.93	291.35	112.91	383.2	220.8	48.758	359.3	27.977	67.153	458.25	274.42	43.598	687.14	27.838	-67.348	618.28	1007.9	138.43	225.64	200.43	58.791	333.21	47.341	38.073	540.99	1020.5	-265.62	526.39	1011.3	-195.64	563.66	772.52	-242.65	276.64	183.14	103.78	295.47	53.405	114.34	300.25	179.12	26.292
477	2.385	572.23	1408.5	-49.992	700.57	1335.1	-56.46	783.14	1111.8	-45.338	535.55	1306.2	54.029	735.19	931.41	-160.02	729.49	931.34	96.471	655.78	1350	117.08	654.42	1141.7	187.91	643.14	1034.8	217.71	736.65	909.89	210.12	781.62	818.34	164.59	738.91	797.14	221.23	795.07	773.41	213	633.07	1340.4	-224.2	573.89	892.23	-280.01	516.54	783.05	-290.57	554.39	730.49	-283.22	632.59	725.86	140.8	626.6	539.01	110.36	692.33	639.07	90.268	629	632	123.76	602.53	442.71	98.246	664.29	737.71	-206.12	723.71	564.21	-169.92	761.65	672.52	-160.65	694.09	647.02	-188.46	746.36	458.03	-158.17	784.43	361.9	-79.208	773.97	174.7	-77.47	754.82	268.96	-148.83	780.96	266.5	-82.247	751.81	73.95	-41.749	884.23	37.606	-83.721	927.72	29.961	-111.26	726.67	1581.6	-89.258	735.15	1584.7	-16.625	543.64	1124.7	-34.641	842.39	21.106	-160.98	515.01	966.1	-82.556	513.88	966.17	33.255	734.36	60.678	-121.47	568.05	1534.4	23.855	545.03	328.47	37.75	586.58	1134.7	-260.79	558.9	1540	-102.68	465.1	293.51	113.03	392.6	223.55	49.062	363.43	28.982	67.495	468.19	276.38	43.733	687.13	27.858	-67.353	622.91	1009	137.21	234.97	205.75	59.229	338.63	49.43	38.636	548.48	1021.1	-266.66	533.5	1011.8	-196.61	571.54	773.13	-243.12	285.56	187.29	104.27	301.04	56.761	114.27	309.26	182.83	26.784
478	2.39	578.01	1409.2	-50.845	706.33	1335.9	-57.128	788.75	1112.5	-45.995	541.23	1307	53.198	740.76	932.17	-160.71	735.5	932.54	95.666	661.41	1350.8	116.34	659.12	1142.5	187.09	647.14	1035.5	216.61	739.7	909.88	209.68	783.95	817.71	164.49	740.81	797.15	221.1	796.73	772.69	213.04	639.16	1341.2	-224.93	581.88	892.77	-280.59	524.89	783.41	-291.45	562.81	730.95	-283.7	639.89	726.49	139.94	636.29	539.48	109.92	700.94	640.27	89.974	637.47	632.53	123.09	613.5	443.38	97.986	668.93	737.96	-206.87	727.31	564.16	-170.42	766.07	672.24	-161.7	698.17	647.11	-189.04	749.4	457.91	-158.57	786.87	361.59	-79.53	774.87	174.47	-77.564	756.51	268.77	-149.08	782.62	266.22	-82.455	751.89	73.946	-41.731	884.19	37.647	-83.716	927.84	29.944	-111.48	732.61	1582.4	-89.925	741.03	1585.4	-17.289	549.35	1125.5	-35.432	842.39	21.15	-160.99	520.62	966.9	-83.318	519.47	966.82	32.438	734.4	60.696	-121.46	573.87	1535.2	23.061	555.63	329.7	37.669	593.68	1135.3	-261.64	564.81	1540.8	-103.49	475.37	295.64	113.08	402.17	226.26	49.254	368.41	30.197	67.911	478.25	278.35	43.782	687.13	27.881	-67.356	627.49	1010.1	136.02	244.46	210.72	59.502	344.77	51.647	39.21	555.98	1021.6	-267.68	540.61	1012.4	-197.59	579.51	773.72	-243.57	294.68	191.3	104.61	307.25	60.163	114.23	318.48	186.41	27.134
479	2.395	583.77	1410	-51.668	712.05	1336.6	-57.771	794.32	1113.3	-46.623	546.86	1307.8	52.364	746.24	932.9	-161.42	741.43	933.75	94.963	666.98	1351.7	115.65	663.74	1143.2	186.31	651.1	1036.3	215.55	742.71	909.87	209.26	786.21	817.09	164.39	742.69	797.17	220.98	798.35	771.98	213.06	645.2	1342	-225.64	589.92	893.29	-281.17	533.34	783.75	-292.34	571.35	731.41	-284.19	647.14	727.2	139.12	645.89	540.04	109.49	709.49	641.56	89.732	645.87	633.16	122.44	624.44	444.16	97.724	673.52	738.21	-207.58	730.84	564.11	-170.91	770.4	671.94	-162.66	702.2	647.21	-189.59	752.34	457.76	-158.95	789.2	361.27	-79.827	775.73	174.25	-77.648	758.16	268.57	-149.32	784.2	265.94	-82.644	751.97	73.942	-41.719	884.16	37.687	-83.725	927.95	29.922	-111.71	738.53	1583.1	-90.555	746.89	1586.2	-17.916	555.04	1126.3	-36.225	842.38	21.18	-161.01	526.21	967.69	-84.07	525.04	967.48	31.627	734.43	60.712	-121.45	579.67	1536	22.309	566.28	331	37.54	600.75	1135.9	-262.48	570.7	1541.7	-104.25	485.72	297.76	113.05	411.88	228.91	49.334	374.28	31.616	68.394	488.4	280.34	43.748	687.13	27.908	-67.359	632	1011.1	134.87	254.09	215.31	59.604	351.67	53.966	39.791	563.48	1022.1	-268.69	547.72	1012.9	-198.58	587.55	774.29	-244.01	303.99	195.14	104.81	314.12	63.572	114.21	327.9	189.84	27.341
480	2.4	589.5	1410.8	-52.459	717.75	1337.4	-58.389	799.86	1113.9	-47.222	552.44	1308.6	51.53	751.64	933.61	-162.14	747.26	934.96	94.355	672.5	1352.5	115	668.3	1143.9	185.58	655.04	1037	214.52	745.67	909.84	208.87	788.43	816.47	164.29	744.54	797.18	220.87	799.94	771.28	213.07	651.21	1342.9	-226.32	598.01	893.82	-281.75	541.91	784.07	-293.22	580.02	731.86	-284.68	654.34	727.98	138.34	655.39	540.71	109.09	717.98	642.91	89.542	654.18	633.89	121.82	635.34	445.06	97.455	678.08	738.46	-208.25	734.32	564.06	-171.38	774.67	671.63	-163.53	706.17	647.3	-190.11	755.19	457.61	-159.3	791.43	360.96	-80.097	776.54	174.04	-77.72	759.77	268.37	-149.55	785.72	265.67	-82.812	752.03	73.937	-41.713	884.13	37.723	-83.744	928.04	29.894	-111.93	744.43	1583.8	-91.148	752.75	1586.9	-18.506	560.71	1127.1	-37.021	842.38	21.2	-161.03	531.77	968.48	-84.808	530.61	968.16	30.827	734.47	60.726	-121.45	585.46	1536.9	21.597	576.97	332.36	37.36	607.8	1136.5	-263.31	576.57	1542.5	-104.97	496.12	299.86	112.94	421.73	231.51	49.302	381.09	33.223	68.935	498.64	282.32	43.63	687.12	27.939	-67.361	636.45	1012.1	133.76	263.85	219.5	59.537	359.34	56.36	40.375	571	1022.6	-269.68	554.82	1013.3	-199.57	595.67	774.85	-244.42	313.46	198.8	104.87	321.68	66.948	114.23	337.5	193.11	27.404
481	2.405	595.21	1411.6	-53.217	723.41	1338.1	-58.985	805.38	1114.6	-47.797	557.99	1309.4	50.695	756.95	934.3	-162.89	752.99	936.14	93.837	677.97	1353.3	114.39	672.79	1144.6	184.89	658.96	1037.6	213.53	748.6	909.81	208.5	790.6	815.86	164.19	746.38	797.2	220.78	801.49	770.58	213.07	657.17	1343.7	-226.96	606.15	894.35	-282.34	550.59	784.37	-294.11	588.81	732.31	-285.17	661.49	728.81	137.61	664.77	541.47	108.7	726.39	644.33	89.404	662.41	634.7	121.22	646.19	446.08	97.174	682.61	738.72	-208.88	737.75	564.01	-171.82	778.86	671.32	-164.31	710.1	647.39	-190.59	757.95	457.45	-159.63	793.57	360.64	-80.34	777.32	173.83	-77.78	761.34	268.16	-149.77	787.17	265.39	-82.959	752.09	73.931	-41.711	884.11	37.755	-83.771	928.12	29.86	-112.14	750.31	1584.5	-91.705	758.59	1587.5	-19.059	566.35	1128	-37.821	842.38	21.21	-161.05	537.29	969.26	-85.53	536.17	968.86	30.044	734.51	60.739	-121.45	591.24	1537.7	20.925	587.69	333.78	37.129	614.83	1137.1	-264.12	582.43	1543.4	-105.65	506.58	301.94	112.74	431.72	234.01	49.161	388.83	34.988	69.525	508.97	284.29	43.433	687.13	27.974	-67.362	640.82	1013	132.69	273.73	223.28	59.303	367.77	58.791	40.958	578.51	1023	-270.66	561.92	1013.8	-200.56	603.86	775.39	-244.82	323.1	202.26	104.77	329.92	70.253	114.28	347.28	196.21	27.323
482	2.41	600.89	1412.4	-53.94	729.04	1338.9	-59.56	810.88	1115.3	-48.348	563.49	1310.2	49.863	762.18	934.96	-163.66	758.62	937.3	93.4	683.4	1354	113.82	677.21	1145.3	184.24	662.86	1038.3	212.58	751.49	909.77	208.15	792.71	815.26	164.09	748.19	797.23	220.69	803.01	769.9	213.05	663.09	1344.5	-227.58	614.32	894.88	-282.92	559.37	784.65	-294.98	597.72	732.76	-285.66	668.59	729.71	136.92	674.03	542.32	108.33	734.72	645.81	89.317	670.54	635.6	120.64	656.98	447.22	96.878	687.12	739	-209.47	741.13	563.97	-172.25	783	671	-165	714	647.49	-191.04	760.64	457.28	-159.94	795.63	360.32	-80.556	778.06	173.62	-77.828	762.88	267.96	-149.97	788.56	265.12	-83.083	752.15	73.922	-41.712	884.08	37.781	-83.804	928.19	29.82	-112.34	756.19	1585.3	-92.228	764.42	1588.2	-19.579	571.98	1128.8	-38.624	842.39	21.213	-161.08	542.79	970.04	-86.234	541.72	969.58	29.282	734.54	60.751	-121.45	597	1538.5	20.292	598.44	335.25	36.845	621.83	1137.7	-264.92	588.26	1544.3	-106.29	517.06	303.99	112.46	441.83	236.42	48.912	397.47	36.869	70.155	519.38	286.24	43.157	687.13	28.013	-67.362	645.13	1013.9	131.65	283.71	226.64	58.905	376.95	61.221	41.538	586.02	1023.5	-271.61	569.01	1014.2	-201.56	612.13	775.93	-245.2	332.9	205.5	104.53	338.85	73.451	114.37	357.24	199.1	27.102
483	2.415	606.55	1413.2	-54.631	734.64	1339.6	-60.116	816.36	1115.9	-48.878	568.97	1311	49.035	767.35	935.61	-164.47	764.16	938.42	93.036	688.79	1354.7	113.28	681.59	1145.9	183.62	666.75	1038.9	211.66	754.35	909.72	207.82	794.79	814.67	163.98	750	797.25	220.61	804.51	769.23	213.03	668.97	1345.4	-228.17	622.55	895.41	-283.5	568.24	784.92	-295.85	606.75	733.23	-286.15	675.62	730.65	136.28	683.17	543.25	107.97	742.97	647.34	89.28	678.56	636.58	120.1	667.7	448.46	96.563	691.62	739.28	-210.03	744.48	563.94	-172.66	787.08	670.68	-165.6	717.86	647.59	-191.44	763.25	457.11	-160.22	797.61	360.01	-80.746	778.76	173.42	-77.865	764.38	267.76	-150.15	789.89	264.85	-83.188	752.2	73.913	-41.715	884.06	37.802	-83.84	928.25	29.777	-112.53	762.04	1586	-92.718	770.23	1588.9	-20.065	577.57	1129.6	-39.431	842.4	21.209	-161.11	548.26	970.82	-86.916	547.28	970.31	28.546	734.58	60.763	-121.45	602.75	1539.3	19.698	609.2	336.77	36.509	628.79	1138.3	-265.7	594.07	1545.2	-106.9	527.58	306	112.1	452.07	238.72	48.558	406.97	38.819	70.82	529.86	288.15	42.805	687.13	28.055	-67.36	649.38	1014.7	130.65	293.8	229.56	58.35	386.84	63.61	42.113	593.53	1023.9	-272.55	576.1	1014.5	-202.56	620.47	776.46	-245.57	342.86	208.49	104.15	348.43	76.511	114.49	367.37	201.78	26.745
